<svg xmlns="http://www.w3.org/2000/svg" viewBox="0 0 733.05 752.15"><defs><style>.cls-1{fill:none;}.cls-2{fill:#424242;}.cls-2,.cls-4{stroke:#424242;}.cls-2,.cls-3,.cls-4{stroke-miterlimit:10;stroke-width:2px;}.cls-3{fill:#1a619c;stroke:#1a619c;}.cls-4{fill:#444;}</style></defs><g id="Layer_2" data-name="Layer 2"><g id="Layer_1-2" data-name="Layer 1"><path class="cls-1" d="M366.75,374.78H694.52V44.27h-653V374.78h123.7a161,161,0,0,1,201.5,0Z"/><path class="cls-2" d="M732.05,1H4V418.05h123.2a162.85,162.85,0,0,1,38-43.27H41.55V44.27h653V374.78H366.75a163.13,163.13,0,0,1,38,43.27H732.05Z"/><path class="cls-1" d="M257.2,374.78h16.1c-.94,0-1.85-.21-2.8-.24A127.78,127.78,0,0,0,257.2,374.78Z"/><path class="cls-1" d="M139.27,496.86A126.85,126.85,0,1,0,361.5,418.05h-191A126.23,126.23,0,0,0,139.27,496.86Z"/><path class="cls-3" d="M404.79,418.05a163.13,163.13,0,0,0-38-43.27,161,161,0,0,0-201.5,0,162.85,162.85,0,0,0-38,43.27,161.43,161.43,0,0,0,.14,166.83L1.42,702.28,47.8,750.75,173.14,633.92a161,161,0,0,0,87.22,29.26c89.25,3.13,164.41-66.93,167.55-156.18A161,161,0,0,0,404.79,418.05Zm-143.2,210a126.85,126.85,0,0,1,8.91-253.55c.95,0,1.86.19,2.8.24a126.8,126.8,0,0,1-11.71,253.31Z"/><path class="cls-4" d="M173.62,126.28H173L138.9,144.69l-5.13-20.23,42.87-22.94h22.65V297.77H173.62Z"/><path class="cls-4" d="M401.29,197.53c0,66.73-24.76,103.56-68.23,103.56-38.34,0-64.31-35.93-64.92-100.84,0-65.82,28.39-102,68.24-102C377.74,98.2,401.29,135,401.29,197.53Zm-106.57,3c0,51,15.69,80,39.85,80,27.17,0,40.15-31.7,40.15-81.82,0-48.31-12.38-80-39.85-80C311.62,118.73,294.72,147.11,294.72,200.55Z"/><path class="cls-4" d="M598.13,197.53c0,66.73-24.76,103.56-68.23,103.56-38.35,0-64.31-35.93-64.92-100.84,0-65.82,28.38-102,68.23-102C574.58,98.2,598.13,135,598.13,197.53Zm-106.58,3c0,51,15.7,80,39.85,80,27.17,0,40.16-31.7,40.16-81.82,0-48.31-12.38-80-39.85-80C508.46,118.73,491.55,147.11,491.55,200.55Z"/></g></g></svg>