<svg xmlns="http://www.w3.org/2000/svg" viewBox="0 0 390.71 390.84"><defs><style>.cls-1{fill:#444;}.cls-2{fill:#2b6ea8;}</style></defs><g id="Layer_2" data-name="Layer 2"><g id="Layer_1-2" data-name="Layer 1"><path class="cls-1" d="M390.71,350.32,254.3,213.91a137.53,137.53,0,0,0,22.48-75.52C276.78,62.08,214.7,0,138.39,0S0,62.08,0,138.39,62.08,276.78,138.39,276.78a137.59,137.59,0,0,0,75.36-22.37L350.18,390.84ZM30,138.39A108.39,108.39,0,1,1,138.39,246.78,108.51,108.51,0,0,1,30,138.39Z"/><polygon class="cls-2" points="218.42 123.34 153.44 123.34 153.44 58.36 123.34 58.36 123.34 123.34 58.36 123.34 58.36 153.44 123.34 153.44 123.34 218.42 153.44 218.42 153.44 153.44 218.42 153.44 218.42 123.34"/></g></g></svg>